HIERARCHY
ROOT Hips
{
	OFFSET 0.000000 0.000000 0.000000
	CHANNELS 6 Xposition Yposition Zposition Zrotation Yrotation Xrotation 
	JOINT LHipJoint
	{
		OFFSET 0.000000 0.000000 0.000000
		CHANNELS 3 Zrotation Yrotation Xrotation
		JOINT LeftUpLeg
		{
			OFFSET 1.363060 -1.794630 0.839290
			CHANNELS 3 Zrotation Yrotation Xrotation
			JOINT LeftLeg
			{
				OFFSET 2.448110 -6.726130 0.000000
				CHANNELS 3 Zrotation Yrotation Xrotation
				JOINT LeftFoot
				{
					OFFSET 2.562200 -7.039590 0.000000
					CHANNELS 3 Zrotation Yrotation Xrotation
					JOINT LeftToeBase
					{
						OFFSET 0.157640 -0.433110 2.322550
						CHANNELS 3 Zrotation Yrotation Xrotation
						End Site
						{
							OFFSET 0.000000 0.000000 0.000000
						}
					}
				}
			}
		}
	}
	JOINT RHipJoint
	{
		OFFSET 0.000000 0.000000 0.000000
		CHANNELS 3 Zrotation Yrotation Xrotation
		JOINT RightUpLeg
		{
			OFFSET -1.305520 -1.794630 0.839290
			CHANNELS 3 Zrotation Yrotation Xrotation
			JOINT RightLeg
			{
				OFFSET -2.542530 -6.985550 0.000000
				CHANNELS 3 Zrotation Yrotation Xrotation
				JOINT RightFoot
				{
					OFFSET -2.568260 -7.056230 0.000000
					CHANNELS 3 Zrotation Yrotation Xrotation
					JOINT RightToeBase
					{
						OFFSET -0.164730 -0.452590 2.363150
						CHANNELS 3 Zrotation Yrotation Xrotation
						End Site
						{
							OFFSET 0.000000 0.000000 0.000000
						}
					}
				}
			}
		}
	}
	JOINT LowerBack
	{
		OFFSET 0.000000 0.000000 0.000000
		CHANNELS 3 Zrotation Yrotation Xrotation
		JOINT Spine
		{
			OFFSET 0.028270 2.035590 -0.193380
			CHANNELS 3 Zrotation Yrotation Xrotation
			JOINT Spine1
			{
				OFFSET 0.056720 2.048850 -0.042750
				CHANNELS 3 Zrotation Yrotation Xrotation
				JOINT Neck
				{
					OFFSET 0.000000 0.000000 0.000000
					CHANNELS 3 Zrotation Yrotation Xrotation
					JOINT Neck1
					{
						OFFSET -0.054170 1.746240 0.172020
						CHANNELS 3 Zrotation Yrotation Xrotation
						JOINT Head
						{
							OFFSET 0.104070 1.761360 -0.123970
							CHANNELS 3 Zrotation Yrotation Xrotation
							End Site
							{
								OFFSET 0.000000 0.000000 0.000000
							}
						}
					}
				}
				JOINT LeftShoulder
				{
					OFFSET 0.000000 0.000000 0.000000
					CHANNELS 3 Zrotation Yrotation Xrotation
					JOINT LeftArm
					{
						OFFSET 3.362410 1.200890 -0.311210
						CHANNELS 3 Zrotation Yrotation Xrotation
						JOINT LeftForeArm
						{
							OFFSET 4.983000 -0.000000 -0.000000
							CHANNELS 3 Zrotation Yrotation Xrotation
							JOINT LeftHand
							{
								OFFSET 3.483560 -0.000000 -0.000000
								CHANNELS 3 Zrotation Yrotation Xrotation
								JOINT LeftFingerBase
								{
									OFFSET 0.000000 0.000000 0.000000
									CHANNELS 3 Zrotation Yrotation Xrotation
									JOINT LeftHandIndex1
									{
										OFFSET 0.715260 -0.000000 -0.000000
										CHANNELS 3 Zrotation Yrotation Xrotation
										End Site
										{
											OFFSET 0.000000 0.000000 0.000000
										}
									}
								}
								JOINT LThumb
								{
									OFFSET 0.000000 0.000000 0.000000
									CHANNELS 3 Zrotation Yrotation Xrotation
									End Site
									{
										OFFSET 0.000000 0.000000 0.000000
									}
								}
							}
						}
					}
				}
				JOINT RightShoulder
				{
					OFFSET 0.000000 0.000000 0.000000
					CHANNELS 3 Zrotation Yrotation Xrotation
					JOINT RightArm
					{
						OFFSET -3.136600 1.374050 -0.404650
						CHANNELS 3 Zrotation Yrotation Xrotation
						JOINT RightForeArm
						{
							OFFSET -5.241900 -0.000000 -0.000000
							CHANNELS 3 Zrotation Yrotation Xrotation
							JOINT RightHand
							{
								OFFSET -3.444170 -0.000000 -0.000000
								CHANNELS 3 Zrotation Yrotation Xrotation
								JOINT RightFingerBase
								{
									OFFSET 0.000000 0.000000 0.000000
									CHANNELS 3 Zrotation Yrotation Xrotation
									JOINT RightHandIndex1
									{
										OFFSET -0.622530 -0.000000 -0.000000
										CHANNELS 3 Zrotation Yrotation Xrotation
										End Site
										{
											OFFSET 0.000000 0.000000 0.000000
										}
									}
								}
								JOINT RThumb
								{
									OFFSET 0.000000 0.000000 0.000000
									CHANNELS 3 Zrotation Yrotation Xrotation
									End Site
									{
										OFFSET 0.000000 0.000000 0.000000
									}
								}
							}
						}
					}
				}
			}
		}
	}
}
MOTION
Frames: 12
Frame Time: 0.008333
-0.812853 17.780011 2.217553 0.695268 -2.150713 -0.353915 -3.409164 0.313050 1.473138 -6.041950 1.571870 -24.005471 7.050651 16.293346 51.398511 3.953812 -3.447045 0.639404 8.743500 -16.639800 -55.198800 2.419945 -0.737157 1.854097 5.890585 -0.381499 -20.508093 -6.681251 -15.442630 49.042291 -5.041712 7.969421 -4.480082 -1.570900 7.908500 -22.436400 -0.472538 0.469988 7.072304 -0.303325 0.422542 0.768266 0.112551 0.577996 -10.427182 -3.674660 -3.501944 -15.968177 5.289827 -4.782806 21.994588 1.263100 -1.840300 10.622200 0.791881 -10.851404 -1.576795 -46.009569 -57.435361 26.051819 31.504156 -31.223340 -12.182630 3.238950 -1.894080 7.507396 -31.283823 -16.994328 10.018400 -7.125000 0.000000 0.000000 -37.276700 12.276300 38.046100 -1.075041 11.860015 -1.113570 39.611711 55.020686 21.725827 -31.959163 32.274993 -11.151131 1.149470 3.088540 17.143224 35.300771 -31.400580 -22.262600 7.125000 0.000000 0.000000 68.270200 -53.155000 -21.401100 
-0.812538 17.782328 2.217869 0.690658 -2.169481 -0.331965 -3.409608 0.312066 1.474199 -6.036150 1.599408 -24.014405 7.039621 16.285068 51.362063 3.978378 -3.498985 0.680816 8.719300 -16.623600 -55.114100 2.420841 -0.734289 1.850646 5.890870 -0.367076 -20.521834 -6.671546 -15.437117 49.015302 -5.047553 7.991505 -4.437470 -1.548900 7.855500 -22.276000 -0.465027 0.483388 7.044724 -0.315946 0.440390 0.763999 0.099242 0.584931 -10.414659 -3.624485 -3.499717 -15.974702 5.282283 -4.791575 22.009359 1.251900 -1.840000 10.628400 0.791870 -10.851129 -1.578179 -46.020922 -57.452401 26.117816 31.512402 -31.222354 -12.183896 3.239431 -1.894413 7.493238 -31.280712 -16.996213 10.017700 -7.125000 0.000000 0.000000 -37.275500 12.276800 38.043400 -1.075529 11.859361 -1.110350 39.597416 55.016886 21.701941 -31.927210 32.241158 -11.116951 1.171593 3.074436 17.174931 34.928312 -31.349304 -21.935800 7.125000 0.000000 0.000000 67.921700 -53.197300 -21.266300 
-0.812538 17.784223 2.217974 0.692719 -2.184696 -0.317488 -3.408587 0.311167 1.475406 -6.038241 1.664512 -24.037899 7.029440 16.277529 51.327325 3.996138 -3.535902 0.721882 8.718600 -16.623200 -55.111800 2.421908 -0.732426 1.848217 5.890476 -0.344675 -20.526257 -6.660750 -15.431246 48.987252 -5.041182 7.979499 -4.402781 -1.542800 7.840700 -22.231100 -0.470722 0.499710 7.025247 -0.325554 0.460786 0.760210 0.092714 0.594572 -10.403611 -3.605585 -3.514515 -15.952308 5.267257 -4.815232 21.990905 1.240800 -1.851400 10.616400 0.792399 -10.846430 -1.568967 -46.068332 -57.476662 26.205382 31.540837 -31.228982 -12.192397 3.236837 -1.897944 7.526951 -31.245807 -16.984856 9.997100 -7.125000 0.000000 0.000000 -37.265000 12.299500 37.999300 -1.076258 11.853436 -1.109134 39.593997 55.002157 21.664621 -31.915493 32.236493 -11.111619 1.166992 3.075282 17.197517 34.969034 -31.286109 -21.938500 7.125000 0.000000 0.000000 67.878000 -53.152200 -21.147000 
-0.812959 17.785697 2.218184 0.728730 -2.201201 -0.302968 -3.411245 0.310004 1.478168 -6.078058 1.724280 -24.058034 7.019253 16.271304 51.301639 3.980043 -3.502226 0.744366 8.737900 -16.636100 -55.179200 2.418403 -0.732587 1.845898 5.858317 -0.362390 -20.543918 -6.652771 -15.425936 48.958617 -5.038614 7.971350 -4.371506 -1.556800 7.874400 -22.333200 -0.521480 0.507696 7.002723 -0.335432 0.465792 0.765461 0.110161 0.600529 -10.395629 -3.642383 -3.538193 -15.940894 5.238088 -4.833403 21.958565 1.232300 -1.866900 10.600800 0.793142 -10.847604 -1.562837 -46.091835 -57.497080 26.230508 31.539073 -31.214024 -12.186131 3.234926 -1.904619 7.609283 -31.222389 -16.973674 9.981200 -7.125000 0.000000 0.000000 -37.259800 12.318000 37.969400 -1.074615 11.853251 -1.120747 39.619649 55.082003 21.658217 -31.860481 32.154706 -11.083229 1.174188 3.083663 17.281983 35.060000 -31.305621 -22.024200 7.125000 0.000000 0.000000 67.982400 -53.153400 -21.215200 
-0.812327 17.787697 2.218606 0.770034 -2.222071 -0.287200 -3.417183 0.309150 1.481738 -6.122427 1.742739 -24.059904 7.010254 16.265514 51.279266 3.982468 -3.506374 0.732882 8.738300 -16.636300 -55.180600 2.415082 -0.733012 1.844195 5.816352 -0.381342 -20.558712 -6.644377 -15.419996 48.927901 -5.032299 7.953069 -4.334833 -1.582400 7.935900 -22.519400 -0.565430 0.501042 6.970730 -0.347617 0.452321 0.780356 0.122969 0.596208 -10.385584 -3.631614 -3.544641 -15.960688 5.187682 -4.834740 21.950726 1.209700 -1.871800 10.598800 0.792447 -10.856775 -1.572646 -46.037713 -57.471607 26.157305 31.499653 -31.201616 -12.172298 3.239011 -1.900537 7.650634 -31.245988 -17.032014 10.032000 -7.125000 0.000000 0.000000 -37.255700 12.251800 38.033800 -1.071131 11.860813 -1.136271 39.684014 55.268036 21.688046 -31.753917 31.968011 -11.007704 1.205110 3.090324 17.440188 34.934130 -31.265855 -21.909200 7.125000 0.000000 0.000000 67.861600 -53.170500 -21.173900 
-0.810748 17.789487 2.218290 0.776520 -2.237337 -0.282255 -3.420516 0.309545 1.484312 -6.132291 1.749413 -24.054301 7.000968 16.259155 51.251975 3.998542 -3.540660 0.750665 8.718900 -16.623400 -55.112700 2.415788 -0.733180 1.844415 5.801975 -0.379969 -20.556384 -6.634036 -15.413265 48.897839 -5.025162 7.936634 -4.299117 -1.582700 7.936500 -22.521500 -0.555462 0.490605 6.950392 -0.356480 0.439146 0.795721 0.111325 0.588117 -10.375689 -3.591014 -3.538603 -15.960515 5.128846 -4.824651 21.934792 1.181000 -1.870200 10.590300 0.792021 -10.868586 -1.589281 -45.945987 -57.413675 26.082262 31.469409 -31.215543 -12.163157 3.239059 -1.892250 7.660721 -31.216700 -17.065986 10.049400 -7.125000 0.000000 0.000000 -37.234800 12.222500 38.026700 -1.068171 11.869067 -1.143852 39.706025 55.355619 21.706343 -31.708415 31.884558 -10.974742 1.210875 3.097112 17.518710 34.964422 -31.175610 -21.893600 7.125000 0.000000 0.000000 67.790000 -53.119600 -21.025400 
-0.810221 17.791909 2.217974 0.761553 -2.248451 -0.285383 -3.421451 0.311353 1.486262 -6.117600 1.762311 -24.044192 6.990126 16.252053 51.219612 3.997368 -3.539410 0.800873 8.707600 -16.615800 -55.073200 2.419688 -0.733171 1.845418 5.810006 -0.362276 -20.539989 -6.622195 -15.405687 48.866053 -5.029397 7.953165 -4.264105 -1.554500 7.868900 -22.316600 -0.537638 0.494783 6.961430 -0.355989 0.446743 0.784029 0.104230 0.590284 -10.384250 -3.598253 -3.539230 -15.929566 5.127256 -4.824539 21.923214 1.182400 -1.871900 10.581700 0.792452 -10.871389 -1.597944 -45.907521 -57.392236 26.126306 31.454189 -31.218499 -12.150742 3.235975 -1.890082 7.623752 -31.161121 -17.033955 10.008800 -7.125000 0.000000 0.000000 -37.219500 12.268900 37.948100 -1.068258 11.869569 -1.132004 39.670331 55.253046 21.708149 -31.758426 31.982657 -11.013108 1.182592 3.098913 17.442755 35.169121 -31.113344 -22.026400 7.125000 0.000000 0.000000 67.862500 -53.035500 -20.898900 
-0.810853 17.794436 2.217974 0.731100 -2.238027 -0.293069 -3.420355 0.314241 1.486743 -6.081073 1.758883 -24.022076 6.982995 16.246990 51.193730 3.995557 -3.532410 0.825029 8.712500 -16.619100 -55.090500 2.426472 -0.734503 1.849047 5.842796 -0.357537 -20.514047 -6.611717 -15.399382 48.840585 -5.026742 7.947156 -4.260919 -1.554600 7.869100 -22.317200 -0.546165 0.513047 7.020598 -0.320872 0.471658 0.741056 0.132044 0.606122 -10.427664 -3.654723 -3.561385 -15.870398 5.152102 -4.848279 21.889513 1.199700 -1.886900 10.560900 0.792172 -10.861647 -1.580732 -45.993708 -57.441621 26.277949 31.461240 -31.197140 -12.148923 3.240208 -1.892487 7.557853 -31.217851 -17.038181 10.027400 -7.125000 0.000000 0.000000 -37.242400 12.253200 38.007600 -1.071462 11.862115 -1.118285 39.567011 55.032132 21.691241 -31.834691 32.169010 -11.073204 1.150749 3.089103 17.230008 35.227496 -31.166239 -22.092900 7.125000 0.000000 0.000000 67.943500 -53.036700 -20.952300 
-0.811274 17.795068 2.218395 0.696803 -2.213456 -0.296387 -3.418402 0.316208 1.485994 -6.041483 1.743349 -24.006217 6.980156 16.244786 51.180202 3.997667 -3.534623 0.841388 8.719900 -16.624100 -55.116500 2.431983 -0.735754 1.853529 5.884273 -0.375599 -20.500266 -6.605446 -15.395659 48.827379 -5.008504 7.893958 -4.290086 -1.585500 7.943300 -22.541900 -0.516398 0.518148 7.033490 -0.311217 0.481464 0.742195 0.124382 0.610141 -10.436180 -3.666253 -3.571333 -15.821803 5.151089 -4.859225 21.814336 1.200000 -1.895400 10.523900 0.793953 -10.868376 -1.584657 -46.000606 -57.469207 26.329017 31.473329 -31.200293 -12.161480 3.243797 -1.895376 7.471654 -31.363965 -17.009937 10.054500 -7.125000 0.000000 0.000000 -37.305300 12.240000 38.138900 -1.071931 11.866951 -1.122083 39.465541 54.912930 21.632944 -31.871692 32.273603 -11.104470 1.141385 3.080144 17.064456 35.134446 -31.298910 -22.078500 7.125000 0.000000 0.000000 68.013700 -53.120900 -21.168700 
-0.811063 17.795384 2.218921 0.716588 -2.210484 -0.284108 -3.420971 0.313691 1.484824 -6.063074 1.738247 -24.016598 6.976492 16.243707 51.176093 3.976998 -3.493885 0.855240 8.725600 -16.627900 -55.136300 2.430071 -0.734962 1.852088 5.863934 -0.379079 -20.510545 -6.603559 -15.393954 48.818070 -5.006018 7.884543 -4.286016 -1.588900 7.951500 -22.566800 -0.533227 0.514331 7.009440 -0.325023 0.474017 0.750951 0.127794 0.607004 -10.425529 -3.632672 -3.554690 -15.823074 5.126876 -4.838486 21.792386 1.187500 -1.886000 10.514200 0.795293 -10.878081 -1.600655 -45.950408 -57.467580 26.281655 31.463857 -31.200760 -12.162469 3.242620 -1.901412 7.404373 -31.474140 -16.921928 10.028500 -7.125000 0.000000 0.000000 -37.366900 12.293100 38.196100 -1.071308 11.875497 -1.125943 39.441788 54.905403 21.600714 -31.896913 32.301606 -11.119142 1.139997 3.078763 17.021803 35.107432 -31.332055 -22.072200 7.125000 0.000000 0.000000 68.029900 -53.143500 -21.225000 
-0.810958 17.796121 2.219764 0.762316 -2.213917 -0.269826 -3.424928 0.309909 1.483572 -6.112300 1.742050 -24.033266 6.973989 16.243968 51.179278 3.951488 -3.443200 0.852450 8.730500 -16.631100 -55.153300 2.424830 -0.734569 1.848378 5.815396 -0.376661 -20.524015 -6.606746 -15.395124 48.817969 -5.016033 7.907298 -4.279644 -1.576200 7.921000 -22.474500 -0.609905 0.517348 7.020305 -0.324614 0.470589 0.721782 0.169873 0.611814 -10.446908 -3.617660 -3.542024 -15.823803 5.117307 -4.822822 21.813238 1.183600 -1.878300 10.521200 0.793923 -10.873372 -1.591044 -45.982540 -57.483961 26.274538 31.458898 -31.183574 -12.156904 3.241486 -1.907699 7.420756 -31.485791 -16.886405 10.006200 -7.125000 0.000000 0.000000 -37.380400 12.325800 38.185500 -1.072338 11.875426 -1.128432 39.432288 54.886550 21.585984 -31.914696 32.330915 -11.137688 1.124915 3.084752 17.011530 35.301131 -31.313414 -22.220200 7.125000 0.000000 0.000000 68.154900 -53.093600 -21.202100 
-0.811379 17.795594 2.219869 0.763093 -2.206309 -0.273442 -3.423598 0.311017 1.483948 -6.110915 1.740611 -24.028618 6.975924 16.244979 51.184611 3.957625 -3.457508 0.853718 8.732100 -16.632200 -55.159000 2.424303 -0.735231 1.848699 5.817795 -0.386641 -20.523029 -6.612531 -15.399072 48.835285 -5.013614 7.899189 -4.296267 -1.575200 7.918600 -22.467100 -0.652984 0.510374 7.059266 -0.300524 0.458654 0.695905 0.203458 0.610832 -10.487161 -3.608157 -3.529804 -15.814747 5.103103 -4.805435 21.815435 1.178000 -1.871000 10.517900 0.790810 -10.869422 -1.581172 -45.990725 -57.463862 26.230790 31.459524 -31.189924 -12.155405 3.239884 -1.903072 7.458560 -31.396374 -16.919299 10.001100 -7.125000 0.000000 0.000000 -37.338100 12.318600 38.114400 -1.072104 11.874939 -1.137401 39.481891 54.982311 21.576546 -31.855598 32.238529 -11.112717 1.125146 3.099958 17.152314 35.569263 -31.304918 -22.437700 7.125000 0.000000 0.000000 68.364200 -53.046300 -21.237500 
